<?xml version="1.0" encoding="utf-8"?>
<!-- Generator: Adobe Illustrator 22.0.1, SVG Export Plug-In . SVG Version: 6.00 Build 0)  -->
<svg version="1.1" id="Layer_1" xmlns="http://www.w3.org/2000/svg" xmlns:xlink="http://www.w3.org/1999/xlink" x="0px" y="0px"
	 viewBox="0 0 100 105.3" style="enable-background:new 0 0 100 105.3;" xml:space="preserve">
<style type="text/css">
	.st0{fill:#FFFFFF;}
	.st1{enable-background:new    ;}
</style>
<title>discover</title>
<g>
	<g>
		<path class="st0" d="M71.2,49v3.3h-4l-12.1-9.5l15.9-16c6.1-6.1,6.2-16.1,0-22.2C68,1.6,64,0,59.8,0s-8.2,1.6-11.1,4.6L48.4,5
			L48,4.6c-6.1-6.1-16.1-6.1-22.2,0s-6.1,16.1,0,22.2l18.3,18.3c0,0.2-0.1,0.4-0.1,0.6c0,1.7,0.8,3.3,2.1,4.3l1.2,1l-2.5,1.3
			l-3.2,0.4l-5.4-7.3c-1.6-2.1-4.5-2.5-6.6-0.9c-1.2,0.9-1.9,2.3-1.9,3.7L26.2,47c-0.9-0.8-2-1.2-3.2-1.3h-0.1
			c-2.7,0-4.9,2.2-4.9,4.9c0,1.3,0.5,2.6,1.5,3.5l6.4,6.4c1.7,1.7,3.7,2.8,6,3.4l8.4,2.1c1,0.3,2.1,0.4,3.1,0.4H67l4.2-0.8v1.9h10.9
			V49H71.2z M44.9,42.9L27.3,25.3C22,20,22,11.4,27.3,6.1s13.9-5.3,19.1,0L48.3,8l1.9-1.9c5.3-5.3,13.9-5.3,19.1,0s5.3,13.9,0,19.1
			L53.4,41.4c-0.9-0.7-2.1-1.1-3.3-1.1h-0.6C47.6,40.3,45.9,41.3,44.9,42.9z M29.9,50.1v-1.8c0-1.4,1.1-2.5,2.5-2.5
			c0.8,0,1.5,0.4,2,1l4.7,6.3l-2.4,0.3c-1.8,0.2-3.6-0.3-5-1.5L29.9,50.1L29.9,50.1z M66.8,64.2H43.3c-0.9,0-1.7-0.1-2.6-0.3
			l-8.5-2.1c-1.9-0.5-3.6-1.4-4.9-2.8l-6.4-6.4c-0.5-0.5-0.8-1.2-0.8-2c0-1.5,1.2-2.8,2.8-2.8H23c0.7,0,1.3,0.2,1.8,0.7l5.5,4.8
			c1.8,1.6,4.3,2.3,6.7,2l8.4-1.1l3.7-1.8c0.4,0.4,0.7,0.9,0.8,1.5c0.3,0.9,0.2,2-0.2,2.9l-0.2,0.4l2,1l0.2-0.4
			c0.7-1.4,0.8-3.1,0.2-4.6c-0.4-1.1-1-2-1.9-2.8l-2.7-2.1c-1.4-1.1-1.7-3.2-0.5-4.7c0.6-0.8,1.6-1.3,2.6-1.3H50
			c0.7,0,1.4,0.3,2,0.7l14.4,11.3h4.7v8.9L66.8,64.2z M79.9,65.3h-6.5V51.2h6.5V65.3z"/>
	</g>
	<g>
		<rect x="75.6" y="53.3" class="st0" width="2.2" height="2.2"/>
	</g>
	<g>
		<path class="st0" d="M25.5,15.7c0,1.5,0.3,3.1,0.9,4.5l2-0.9c-2-4.7,0.2-10.1,4.9-12.1c1.1-0.5,2.4-0.7,3.6-0.7V4.4
			C30.6,4.4,25.5,9.4,25.5,15.7z"/>
	</g>
	<g>
		<path class="st0" d="M27.4,22.1c0.4,0.6,0.9,1.2,1.4,1.7l1.5-1.5c-0.4-0.4-0.8-0.9-1.1-1.4L27.4,22.1z"/>
	</g>
	<g class="st1">
		<path class="st0" d="M12.1,86.8v-8.5h2.4c0.7,0,1.4,0.2,2,0.5s1,0.8,1.3,1.4s0.5,1.3,0.5,2.1v0.5c0,0.8-0.2,1.5-0.5,2.1
			s-0.8,1.1-1.3,1.4s-1.2,0.5-2,0.5H12.1z M13.2,79.2v6.7h1.2c0.9,0,1.5-0.3,2-0.8s0.7-1.3,0.7-2.3v-0.5c0-1-0.2-1.7-0.7-2.3
			s-1.1-0.8-1.9-0.8H13.2z"/>
		<path class="st0" d="M19.8,78.7c0-0.2,0.1-0.3,0.2-0.4s0.3-0.2,0.5-0.2s0.4,0.1,0.5,0.2s0.2,0.3,0.2,0.4s-0.1,0.3-0.2,0.4
			s-0.3,0.2-0.5,0.2s-0.4-0.1-0.5-0.2S19.8,78.9,19.8,78.7z M21,86.8h-1.1v-6.3H21V86.8z"/>
		<path class="st0" d="M26.4,85.1c0-0.3-0.1-0.5-0.3-0.7s-0.6-0.3-1.2-0.4s-1-0.3-1.3-0.4s-0.6-0.4-0.7-0.6s-0.2-0.5-0.2-0.8
			c0-0.5,0.2-1,0.7-1.3s1-0.5,1.7-0.5c0.7,0,1.3,0.2,1.7,0.6s0.7,0.8,0.7,1.4h-1.1c0-0.3-0.1-0.6-0.4-0.8s-0.6-0.3-1-0.3
			c-0.4,0-0.7,0.1-0.9,0.3s-0.3,0.4-0.3,0.7c0,0.3,0.1,0.5,0.3,0.6s0.6,0.3,1.1,0.4s1,0.3,1.3,0.4s0.6,0.4,0.7,0.6s0.2,0.5,0.2,0.9
			c0,0.6-0.2,1-0.7,1.4s-1,0.5-1.8,0.5c-0.5,0-1-0.1-1.3-0.3s-0.7-0.4-0.9-0.8s-0.3-0.7-0.3-1h1.1c0,0.4,0.2,0.7,0.4,0.9
			s0.6,0.3,1.1,0.3c0.4,0,0.7-0.1,1-0.2S26.4,85.4,26.4,85.1z"/>
		<path class="st0" d="M31.5,86c0.4,0,0.7-0.1,1-0.4s0.4-0.5,0.5-0.9h1c0,0.4-0.1,0.7-0.4,1s-0.5,0.6-0.9,0.8s-0.8,0.3-1.2,0.3
			c-0.9,0-1.5-0.3-2.1-0.9s-0.8-1.4-0.8-2.4v-0.2c0-0.6,0.1-1.2,0.3-1.6s0.6-0.9,1-1.1s0.9-0.4,1.5-0.4c0.7,0,1.3,0.2,1.8,0.6
			s0.7,1,0.8,1.7h-1c0-0.4-0.2-0.7-0.5-1s-0.6-0.4-1-0.4c-0.6,0-1,0.2-1.3,0.6s-0.5,1-0.5,1.7v0.2c0,0.7,0.2,1.3,0.5,1.7
			S30.9,86,31.5,86z"/>
		<path class="st0" d="M34.9,83.5c0-0.6,0.1-1.2,0.4-1.7s0.6-0.9,1-1.1s0.9-0.4,1.5-0.4c0.9,0,1.6,0.3,2.1,0.9s0.8,1.4,0.8,2.4v0.1
			c0,0.6-0.1,1.2-0.4,1.7s-0.6,0.9-1,1.1s-0.9,0.4-1.5,0.4c-0.9,0-1.6-0.3-2.1-0.9S34.9,84.6,34.9,83.5L34.9,83.5z M36,83.7
			c0,0.7,0.2,1.3,0.5,1.7s0.8,0.6,1.3,0.6c0.6,0,1-0.2,1.3-0.6s0.5-1,0.5-1.8c0-0.7-0.2-1.3-0.5-1.7s-0.8-0.6-1.3-0.6
			c-0.5,0-1,0.2-1.3,0.6S36,82.9,36,83.7z"/>
		<path class="st0" d="M44,85.3l1.6-4.9h1.1l-2.3,6.3h-0.8l-2.3-6.3h1.1L44,85.3z"/>
		<path class="st0" d="M50.3,86.9c-0.9,0-1.6-0.3-2.1-0.8s-0.8-1.3-0.8-2.3v-0.2c0-0.6,0.1-1.2,0.4-1.7s0.6-0.9,1-1.2
			s0.9-0.4,1.4-0.4c0.8,0,1.5,0.3,1.9,0.8s0.7,1.3,0.7,2.3v0.5h-4.3c0,0.6,0.2,1.1,0.5,1.5s0.8,0.6,1.3,0.6c0.4,0,0.7-0.1,1-0.2
			s0.5-0.4,0.7-0.6l0.7,0.5C52.2,86.5,51.4,86.9,50.3,86.9z M50.2,81.2c-0.4,0-0.8,0.2-1.1,0.5s-0.5,0.8-0.6,1.3h3.2v-0.1
			c0-0.6-0.2-1-0.4-1.3S50.6,81.2,50.2,81.2z"/>
		<path class="st0" d="M57.1,81.4c-0.2,0-0.3,0-0.5,0c-0.7,0-1.2,0.3-1.4,0.9v4.5H54v-6.3h1.1l0,0.7c0.4-0.6,0.9-0.8,1.5-0.8
			c0.2,0,0.4,0,0.5,0.1V81.4z"/>
		<path class="st0" d="M62.3,86.8h-1.1v-9h1.1V86.8z"/>
		<path class="st0" d="M63.7,83.5c0-0.6,0.1-1.2,0.4-1.7s0.6-0.9,1-1.1s0.9-0.4,1.5-0.4c0.9,0,1.6,0.3,2.1,0.9s0.8,1.4,0.8,2.4v0.1
			c0,0.6-0.1,1.2-0.4,1.7s-0.6,0.9-1,1.1s-0.9,0.4-1.5,0.4c-0.9,0-1.6-0.3-2.1-0.9S63.7,84.6,63.7,83.5L63.7,83.5z M64.8,83.7
			c0,0.7,0.2,1.3,0.5,1.7S66,86,66.6,86c0.6,0,1-0.2,1.3-0.6s0.5-1,0.5-1.8c0-0.7-0.2-1.3-0.5-1.7s-0.8-0.6-1.3-0.6
			c-0.5,0-1,0.2-1.3,0.6S64.8,82.9,64.8,83.7z"/>
		<path class="st0" d="M73.4,86c0.4,0,0.7-0.1,1-0.4s0.4-0.5,0.5-0.9h1c0,0.4-0.1,0.7-0.4,1s-0.5,0.6-0.9,0.8s-0.8,0.3-1.2,0.3
			c-0.9,0-1.5-0.3-2.1-0.9s-0.8-1.4-0.8-2.4v-0.2c0-0.6,0.1-1.2,0.3-1.6s0.6-0.9,1-1.1s0.9-0.4,1.5-0.4c0.7,0,1.3,0.2,1.8,0.6
			s0.7,1,0.8,1.7h-1c0-0.4-0.2-0.7-0.5-1s-0.6-0.4-1-0.4c-0.6,0-1,0.2-1.3,0.6s-0.5,1-0.5,1.7v0.2c0,0.7,0.2,1.3,0.5,1.7
			S72.8,86,73.4,86z"/>
		<path class="st0" d="M81,86.8c-0.1-0.1-0.1-0.3-0.2-0.7c-0.5,0.5-1.1,0.8-1.8,0.8c-0.6,0-1.1-0.2-1.5-0.5s-0.6-0.8-0.6-1.3
			c0-0.7,0.3-1.2,0.8-1.5s1.2-0.5,2.1-0.5h1.1v-0.5c0-0.4-0.1-0.7-0.3-0.9s-0.6-0.3-1-0.3c-0.4,0-0.7,0.1-1,0.3s-0.4,0.4-0.4,0.7
			h-1.1c0-0.3,0.1-0.6,0.3-0.9s0.5-0.5,0.9-0.7s0.8-0.3,1.3-0.3c0.7,0,1.3,0.2,1.7,0.5s0.6,0.9,0.6,1.5v2.9c0,0.6,0.1,1,0.2,1.4v0.1
			H81z M79.2,85.9c0.3,0,0.7-0.1,1-0.3s0.5-0.4,0.7-0.7v-1.3H80c-1.3,0-2,0.4-2,1.2c0,0.3,0.1,0.6,0.3,0.8S78.9,85.9,79.2,85.9z"/>
		<path class="st0" d="M84.8,86.8h-1.1v-9h1.1V86.8z"/>
	</g>
	<g class="st1">
		<path class="st0" d="M30.5,100.4c0.4,0,0.7-0.1,1-0.4s0.4-0.5,0.5-0.9h1c0,0.4-0.1,0.7-0.4,1s-0.5,0.6-0.9,0.8s-0.8,0.3-1.2,0.3
			c-0.9,0-1.5-0.3-2.1-0.9s-0.8-1.4-0.8-2.4v-0.2c0-0.6,0.1-1.2,0.3-1.6s0.6-0.9,1-1.1s0.9-0.4,1.5-0.4c0.7,0,1.3,0.2,1.8,0.6
			s0.7,1,0.8,1.7h-1c0-0.4-0.2-0.7-0.5-1s-0.6-0.4-1-0.4c-0.6,0-1,0.2-1.3,0.6s-0.5,1-0.5,1.7v0.2c0,0.7,0.2,1.3,0.5,1.7
			S29.9,100.4,30.5,100.4z"/>
		<path class="st0" d="M35.3,95.6c0.5-0.6,1.1-0.9,1.9-0.9c1.3,0,2,0.8,2,2.3v4.2h-1.1V97c0-0.5-0.1-0.8-0.3-1s-0.5-0.3-1-0.3
			c-0.4,0-0.7,0.1-0.9,0.3s-0.5,0.4-0.6,0.7v4.5h-1.1v-9h1.1V95.6z"/>
		<path class="st0" d="M44.8,101.2c-0.1-0.1-0.1-0.3-0.2-0.7c-0.5,0.5-1.1,0.8-1.8,0.8c-0.6,0-1.1-0.2-1.5-0.5s-0.6-0.8-0.6-1.3
			c0-0.7,0.3-1.2,0.8-1.5s1.2-0.5,2.1-0.5h1.1v-0.5c0-0.4-0.1-0.7-0.3-0.9s-0.6-0.3-1-0.3c-0.4,0-0.7,0.1-1,0.3s-0.4,0.4-0.4,0.7
			h-1.1c0-0.3,0.1-0.6,0.3-0.9s0.5-0.5,0.9-0.7s0.8-0.3,1.3-0.3c0.7,0,1.3,0.2,1.7,0.5s0.6,0.9,0.6,1.5v2.9c0,0.6,0.1,1,0.2,1.4v0.1
			H44.8z M43,100.3c0.3,0,0.7-0.1,1-0.3s0.5-0.4,0.7-0.7v-1.3h-0.8c-1.3,0-2,0.4-2,1.2c0,0.3,0.1,0.6,0.3,0.8S42.6,100.3,43,100.3z"
			/>
		<path class="st0" d="M50.4,95.8c-0.2,0-0.3,0-0.5,0c-0.7,0-1.2,0.3-1.4,0.9v4.5h-1.1v-6.3h1.1l0,0.7c0.4-0.6,0.9-0.8,1.5-0.8
			c0.2,0,0.4,0,0.5,0.1V95.8z"/>
		<path class="st0" d="M51.4,93.1c0-0.2,0.1-0.3,0.2-0.4s0.3-0.2,0.5-0.2s0.4,0.1,0.5,0.2s0.2,0.3,0.2,0.4s-0.1,0.3-0.2,0.4
			s-0.3,0.2-0.5,0.2s-0.4-0.1-0.5-0.2S51.4,93.3,51.4,93.1z M52.6,101.2h-1.1v-6.3h1.1V101.2z"/>
		<path class="st0" d="M55.8,93.3v1.5H57v0.8h-1.2v3.9c0,0.3,0.1,0.4,0.2,0.6s0.3,0.2,0.5,0.2c0.1,0,0.3,0,0.5-0.1v0.9
			c-0.3,0.1-0.6,0.1-0.8,0.1c-0.5,0-0.8-0.1-1.1-0.4s-0.4-0.7-0.4-1.2v-3.9h-1.2v-0.8h1.2v-1.5H55.8z"/>
		<path class="st0" d="M58.3,93.1c0-0.2,0.1-0.3,0.2-0.4s0.3-0.2,0.5-0.2s0.4,0.1,0.5,0.2s0.2,0.3,0.2,0.4s-0.1,0.3-0.2,0.4
			s-0.3,0.2-0.5,0.2s-0.4-0.1-0.5-0.2S58.3,93.3,58.3,93.1z M59.4,101.2h-1.1v-6.3h1.1V101.2z"/>
		<path class="st0" d="M63.8,101.3c-0.9,0-1.6-0.3-2.1-0.8s-0.8-1.3-0.8-2.3V98c0-0.6,0.1-1.2,0.4-1.7s0.6-0.9,1-1.2
			s0.9-0.4,1.4-0.4c0.8,0,1.5,0.3,1.9,0.8s0.7,1.3,0.7,2.3v0.5H62c0,0.6,0.2,1.1,0.5,1.5s0.8,0.6,1.3,0.6c0.4,0,0.7-0.1,1-0.2
			s0.5-0.4,0.7-0.6l0.7,0.5C65.7,100.9,64.9,101.3,63.8,101.3z M63.7,95.6c-0.4,0-0.8,0.2-1.1,0.5s-0.5,0.8-0.6,1.3h3.2v-0.1
			c0-0.6-0.2-1-0.4-1.3S64.1,95.6,63.7,95.6z"/>
		<path class="st0" d="M71.2,99.5c0-0.3-0.1-0.5-0.3-0.7s-0.6-0.3-1.2-0.4s-1-0.3-1.3-0.4s-0.6-0.4-0.7-0.6s-0.2-0.5-0.2-0.8
			c0-0.5,0.2-1,0.7-1.3s1-0.5,1.7-0.5c0.7,0,1.3,0.2,1.7,0.6s0.7,0.8,0.7,1.4h-1.1c0-0.3-0.1-0.6-0.4-0.8s-0.6-0.3-1-0.3
			c-0.4,0-0.7,0.1-0.9,0.3s-0.3,0.4-0.3,0.7c0,0.3,0.1,0.5,0.3,0.6s0.6,0.3,1.1,0.4s1,0.3,1.3,0.4s0.6,0.4,0.7,0.6s0.2,0.5,0.2,0.9
			c0,0.6-0.2,1-0.7,1.4s-1,0.5-1.8,0.5c-0.5,0-1-0.1-1.3-0.3s-0.7-0.4-0.9-0.8s-0.3-0.7-0.3-1h1.1c0,0.4,0.2,0.7,0.4,0.9
			s0.6,0.3,1.1,0.3c0.4,0,0.7-0.1,1-0.2S71.2,99.8,71.2,99.5z"/>
	</g>
</g>
</svg>
