<?xml version="1.0" encoding="utf-8"?>
<!-- Generator: Adobe Illustrator 22.0.1, SVG Export Plug-In . SVG Version: 6.00 Build 0)  -->
<svg version="1.1" id="Layer_1" xmlns="http://www.w3.org/2000/svg" xmlns:xlink="http://www.w3.org/1999/xlink" x="0px" y="0px"
	 viewBox="0 0 100 104.8" style="enable-background:new 0 0 100 104.8;" xml:space="preserve">
<style type="text/css">
	.st0{fill:#FFFFFF;}
	.st1{enable-background:new    ;}
</style>
<g>
	<title>donate</title>
	<g>
		<path class="st0" d="M53.3,33.8c0-3.6-2.9-6.5-6.5-6.5h-4.3c-2.4,0.1-4.4-1.7-4.6-4.1s1.7-4.4,4.1-4.6c0.1,0,0.3,0,0.4,0h4.3
			c2.4,0,4.4,2,4.4,4.4l0,0v2h2.2v-2.1c0-3.6-2.9-6.5-6.5-6.5l0,0h-1.1V12h-2.2v4.4h-1.1c-3.6-0.1-6.6,2.7-6.8,6.3s2.7,6.6,6.3,6.8
			c0.2,0,0.3,0,0.5,0h4.3c2.4-0.1,4.4,1.7,4.6,4.1s-1.7,4.4-4.1,4.6c-0.1,0-0.3,0-0.4,0h-4.3c-2.4,0-4.4-1.9-4.4-4.3l0,0v-2.2h-2.2
			v2.2c0,3.6,2.9,6.5,6.5,6.5l0,0h1.1v4.3h2.2v-4.3h1.1C50.3,40.3,53.3,37.4,53.3,33.8L53.3,33.8z"/>
	</g>
	<g>
		<rect x="55.4" y="27.2" class="st0" width="2.2" height="2.2"/>
	</g>
	<g>
		<rect x="31.5" y="27.2" class="st0" width="2.2" height="2.2"/>
	</g>
	<g>
		<path class="st0" d="M73.4,38.1c-0.8,0-1.6,0.1-2.4,0.3c5.6-14.6-1.7-31-16.3-36.5s-31,1.7-36.5,16.3s1.7,31,16.3,36.5
			c3.2,1.2,6.7,1.9,10.1,1.9c1.9,0,3.7-0.2,5.5-0.5l8.8,8.8c3.5,3.5,9.2,3.5,12.7,0l9.1-9.1c4-4,4-10.6,0-14.6
			C78.8,39.2,76.2,38.1,73.4,38.1z M18.4,28.3C18.7,13.9,30.6,2.4,45.1,2.7c14,0.3,25.3,11.6,25.6,25.6c0,3.9-0.9,7.8-2.6,11.3
			c-0.7,0.4-1.4,1-2,1.6L65.3,42l-0.9-0.9c-0.4-0.4-0.9-0.8-1.5-1.1c2.2-3.5,3.4-7.5,3.4-11.6c0-12-9.7-21.8-21.7-21.8
			s-21.8,9.7-21.8,21.7s9.7,21.8,21.7,21.8l0,0c0.8,0,1.5-0.1,2.3-0.1c0.2,1.5,0.8,2.9,1.6,4.2c-1.3,0.2-2.6,0.3-3.9,0.3
			C30.1,54.4,18.4,42.7,18.4,28.3L18.4,28.3z M46.8,47.8c-0.7,0.1-1.5,0.1-2.2,0.1c-10.8,0-19.7-8.7-19.7-19.6
			c0-10.8,8.7-19.7,19.6-19.7c10.8,0,19.7,8.7,19.7,19.6c0,3.8-1.1,7.5-3.1,10.7c-5.3-2.2-11.3,0.3-13.5,5.6
			C47.1,45.5,46.8,46.6,46.8,47.8L46.8,47.8z M79.2,54.2l-9.1,9.1c-2.7,2.7-7,2.7-9.6,0l-9.1-9.1C48.1,51.1,48,46,51,42.7
			c3.1-3.3,8.2-3.4,11.5-0.4c0.1,0.1,0.2,0.2,0.4,0.4l2.4,2.4l2.4-2.4c3.1-3.2,8.3-3.3,11.5-0.1c3.2,3.1,3.3,8.3,0.1,11.5
			C79.3,54.1,79.2,54.2,79.2,54.2z"/>
	</g>
	<g>
		<path class="st0" d="M54.4,51.1c-0.7-0.7-1.1-1.7-1.1-2.7c0-2.1,1.7-3.8,3.8-3.8v-2.2c-3.3,0-6,2.8-5.9,6.1c0,1.5,0.6,3,1.7,4.1
			l6.2,6.1l1.5-1.5L54.4,51.1z"/>
	</g>
	<g>
		
			<rect x="60.9" y="59.2" transform="matrix(0.7071 -0.7071 0.7071 0.7071 -24.4536 61.511)" class="st0" width="2.2" height="2.2"/>
	</g>
	<g class="st1">
		<path class="st0" d="M14,86.3v-8.5h2.4c0.7,0,1.4,0.2,2,0.5s1,0.8,1.3,1.4s0.5,1.3,0.5,2.1v0.5c0,0.8-0.2,1.5-0.5,2.1
			s-0.8,1.1-1.3,1.4s-1.2,0.5-2,0.5H14z M15.1,78.7v6.7h1.2c0.9,0,1.5-0.3,2-0.8s0.7-1.3,0.7-2.3v-0.5c0-1-0.2-1.7-0.7-2.3
			s-1.1-0.8-1.9-0.8H15.1z"/>
		<path class="st0" d="M21.4,83c0-0.6,0.1-1.2,0.4-1.7s0.6-0.9,1-1.1s0.9-0.4,1.5-0.4c0.9,0,1.6,0.3,2.1,0.9s0.8,1.4,0.8,2.4v0.1
			c0,0.6-0.1,1.2-0.4,1.7s-0.6,0.9-1,1.1s-0.9,0.4-1.5,0.4c-0.9,0-1.6-0.3-2.1-0.9S21.4,84.1,21.4,83L21.4,83z M22.5,83.2
			c0,0.7,0.2,1.3,0.5,1.7s0.8,0.6,1.3,0.6c0.6,0,1-0.2,1.3-0.6s0.5-1,0.5-1.8c0-0.7-0.2-1.3-0.5-1.7s-0.8-0.6-1.3-0.6
			c-0.5,0-1,0.2-1.3,0.6S22.5,82.4,22.5,83.2z"/>
		<path class="st0" d="M29.6,79.9l0,0.8c0.5-0.6,1.1-0.9,1.9-0.9c1.3,0,2,0.8,2,2.3v4.2h-1.1v-4.2c0-0.5-0.1-0.8-0.3-1
			s-0.5-0.3-1-0.3c-0.4,0-0.7,0.1-0.9,0.3s-0.5,0.4-0.6,0.7v4.5h-1.1v-6.3H29.6z"/>
		<path class="st0" d="M39.1,86.3c-0.1-0.1-0.1-0.3-0.2-0.7c-0.5,0.5-1.1,0.8-1.8,0.8c-0.6,0-1.1-0.2-1.5-0.5S35,85.1,35,84.5
			c0-0.7,0.3-1.2,0.8-1.5s1.2-0.5,2.1-0.5h1.1v-0.5c0-0.4-0.1-0.7-0.3-0.9s-0.6-0.3-1-0.3c-0.4,0-0.7,0.1-1,0.3s-0.4,0.4-0.4,0.7
			h-1.1c0-0.3,0.1-0.6,0.3-0.9s0.5-0.5,0.9-0.7s0.8-0.3,1.3-0.3c0.7,0,1.3,0.2,1.7,0.5s0.6,0.9,0.6,1.5v2.9c0,0.6,0.1,1,0.2,1.4v0.1
			H39.1z M37.3,85.4c0.3,0,0.7-0.1,1-0.3s0.5-0.4,0.7-0.7v-1.3h-0.8c-1.3,0-2,0.4-2,1.2c0,0.3,0.1,0.6,0.3,0.8S36.9,85.4,37.3,85.4z
			"/>
		<path class="st0" d="M43.2,78.4v1.5h1.2v0.8h-1.2v3.9c0,0.3,0.1,0.4,0.2,0.6s0.3,0.2,0.5,0.2c0.1,0,0.3,0,0.5-0.1v0.9
			c-0.3,0.1-0.6,0.1-0.8,0.1c-0.5,0-0.8-0.1-1.1-0.4s-0.4-0.7-0.4-1.2v-3.9h-1.2v-0.8h1.2v-1.5H43.2z"/>
		<path class="st0" d="M48.3,86.4c-0.9,0-1.6-0.3-2.1-0.8s-0.8-1.3-0.8-2.3v-0.2c0-0.6,0.1-1.2,0.4-1.7s0.6-0.9,1-1.2
			s0.9-0.4,1.4-0.4c0.8,0,1.5,0.3,1.9,0.8s0.7,1.3,0.7,2.3v0.5h-4.3c0,0.6,0.2,1.1,0.5,1.5s0.8,0.6,1.3,0.6c0.4,0,0.7-0.1,1-0.2
			s0.5-0.4,0.7-0.6l0.7,0.5C50.1,86,49.3,86.4,48.3,86.4z M48.1,80.7c-0.4,0-0.8,0.2-1.1,0.5s-0.5,0.8-0.6,1.3h3.2v-0.1
			c0-0.6-0.2-1-0.4-1.3S48.6,80.7,48.1,80.7z"/>
		<path class="st0" d="M58.6,84.6c0-0.3-0.1-0.5-0.3-0.7s-0.6-0.3-1.2-0.4s-1-0.3-1.3-0.4s-0.6-0.4-0.7-0.6s-0.2-0.5-0.2-0.8
			c0-0.5,0.2-1,0.7-1.3s1-0.5,1.7-0.5c0.7,0,1.3,0.2,1.7,0.6s0.7,0.8,0.7,1.4h-1.1c0-0.3-0.1-0.6-0.4-0.8s-0.6-0.3-1-0.3
			c-0.4,0-0.7,0.1-0.9,0.3S56,81.4,56,81.6c0,0.3,0.1,0.5,0.3,0.6s0.6,0.3,1.1,0.4s1,0.3,1.3,0.4s0.6,0.4,0.7,0.6s0.2,0.5,0.2,0.9
			c0,0.6-0.2,1-0.7,1.4s-1,0.5-1.8,0.5c-0.5,0-1-0.1-1.3-0.3s-0.7-0.4-0.9-0.8s-0.3-0.7-0.3-1h1.1c0,0.4,0.2,0.7,0.4,0.9
			s0.6,0.3,1.1,0.3c0.4,0,0.7-0.1,1-0.2S58.6,84.9,58.6,84.6z"/>
		<path class="st0" d="M66.5,83.2c0,1-0.2,1.7-0.7,2.3s-1,0.9-1.8,0.9c-0.8,0-1.4-0.2-1.8-0.7v3.1h-1.1v-8.8h1l0.1,0.7
			c0.4-0.5,1.1-0.8,1.8-0.8c0.8,0,1.4,0.3,1.8,0.9S66.5,82,66.5,83.2L66.5,83.2z M65.4,83c0-0.7-0.2-1.3-0.5-1.7s-0.7-0.6-1.3-0.6
			c-0.7,0-1.1,0.3-1.5,0.9v3c0.3,0.6,0.8,0.9,1.5,0.9c0.5,0,0.9-0.2,1.2-0.6S65.4,83.9,65.4,83z"/>
		<path class="st0" d="M71.8,86.3c-0.1-0.1-0.1-0.3-0.2-0.7c-0.5,0.5-1.1,0.8-1.8,0.8c-0.6,0-1.1-0.2-1.5-0.5s-0.6-0.8-0.6-1.3
			c0-0.7,0.3-1.2,0.8-1.5s1.2-0.5,2.1-0.5h1.1v-0.5c0-0.4-0.1-0.7-0.3-0.9s-0.6-0.3-1-0.3c-0.4,0-0.7,0.1-1,0.3s-0.4,0.4-0.4,0.7
			h-1.1c0-0.3,0.1-0.6,0.3-0.9s0.5-0.5,0.9-0.7s0.8-0.3,1.3-0.3c0.7,0,1.3,0.2,1.7,0.5s0.6,0.9,0.6,1.5v2.9c0,0.6,0.1,1,0.2,1.4v0.1
			H71.8z M70,85.4c0.3,0,0.7-0.1,1-0.3s0.5-0.4,0.7-0.7v-1.3h-0.8c-1.3,0-2,0.4-2,1.2c0,0.3,0.1,0.6,0.3,0.8S69.6,85.4,70,85.4z"/>
		<path class="st0" d="M77.5,80.9c-0.2,0-0.3,0-0.5,0c-0.7,0-1.2,0.3-1.4,0.9v4.5h-1.1v-6.3h1.1l0,0.7c0.4-0.6,0.9-0.8,1.5-0.8
			c0.2,0,0.4,0,0.5,0.1V80.9z"/>
		<path class="st0" d="M81,86.4c-0.9,0-1.6-0.3-2.1-0.8s-0.8-1.3-0.8-2.3v-0.2c0-0.6,0.1-1.2,0.4-1.7s0.6-0.9,1-1.2s0.9-0.4,1.4-0.4
			c0.8,0,1.5,0.3,1.9,0.8s0.7,1.3,0.7,2.3v0.5h-4.3c0,0.6,0.2,1.1,0.5,1.5s0.8,0.6,1.3,0.6c0.4,0,0.7-0.1,1-0.2s0.5-0.4,0.7-0.6
			l0.7,0.5C82.8,86,82,86.4,81,86.4z M80.8,80.7c-0.4,0-0.8,0.2-1.1,0.5s-0.5,0.8-0.6,1.3h3.2v-0.1c0-0.6-0.2-1-0.4-1.3
			S81.3,80.7,80.8,80.7z"/>
	</g>
	<g class="st1">
		<path class="st0" d="M33.8,99.9c0.4,0,0.7-0.1,1-0.4s0.4-0.5,0.5-0.9h1c0,0.4-0.1,0.7-0.4,1s-0.5,0.6-0.9,0.8s-0.8,0.3-1.2,0.3
			c-0.9,0-1.5-0.3-2.1-0.9S31,98.6,31,97.6v-0.2c0-0.6,0.1-1.2,0.3-1.6s0.6-0.9,1-1.1s0.9-0.4,1.5-0.4c0.7,0,1.3,0.2,1.8,0.6
			s0.7,1,0.8,1.7h-1c0-0.4-0.2-0.7-0.5-1s-0.6-0.4-1-0.4c-0.6,0-1,0.2-1.3,0.6s-0.5,1-0.5,1.7v0.2c0,0.7,0.2,1.3,0.5,1.7
			S33.2,99.9,33.8,99.9z"/>
		<path class="st0" d="M38.6,95.1c0.5-0.6,1.1-0.9,1.9-0.9c1.3,0,2,0.8,2,2.3v4.2h-1.1v-4.2c0-0.5-0.1-0.8-0.3-1s-0.5-0.3-1-0.3
			c-0.4,0-0.7,0.1-0.9,0.3s-0.5,0.4-0.6,0.7v4.5h-1.1v-9h1.1V95.1z"/>
		<path class="st0" d="M48.1,100.7c-0.1-0.1-0.1-0.3-0.2-0.7c-0.5,0.5-1.1,0.8-1.8,0.8c-0.6,0-1.1-0.2-1.5-0.5S44,99.5,44,98.9
			c0-0.7,0.3-1.2,0.8-1.5s1.2-0.5,2.1-0.5h1.1v-0.5c0-0.4-0.1-0.7-0.3-0.9s-0.6-0.3-1-0.3c-0.4,0-0.7,0.1-1,0.3s-0.4,0.4-0.4,0.7
			h-1.1c0-0.3,0.1-0.6,0.3-0.9s0.5-0.5,0.9-0.7s0.8-0.3,1.3-0.3c0.7,0,1.3,0.2,1.7,0.5s0.6,0.9,0.6,1.5v2.9c0,0.6,0.1,1,0.2,1.4v0.1
			H48.1z M46.3,99.8c0.3,0,0.7-0.1,1-0.3s0.5-0.4,0.7-0.7v-1.3H47c-1.3,0-2,0.4-2,1.2c0,0.3,0.1,0.6,0.3,0.8S45.9,99.8,46.3,99.8z"
			/>
		<path class="st0" d="M51.7,94.3l0,0.8c0.5-0.6,1.1-0.9,1.9-0.9c1.3,0,2,0.8,2,2.3v4.2h-1.1v-4.2c0-0.5-0.1-0.8-0.3-1
			s-0.5-0.3-1-0.3c-0.4,0-0.7,0.1-0.9,0.3s-0.5,0.4-0.6,0.7v4.5h-1.1v-6.3H51.7z"/>
		<path class="st0" d="M57,97.4c0-1,0.2-1.8,0.7-2.4s1.1-0.9,1.8-0.9c0.8,0,1.4,0.3,1.8,0.8l0.1-0.7h1v6.2c0,0.8-0.2,1.5-0.7,1.9
			s-1.1,0.7-2,0.7c-0.5,0-0.9-0.1-1.3-0.3s-0.8-0.5-1-0.8l0.6-0.7c0.5,0.6,1,0.9,1.7,0.9c0.5,0,0.9-0.1,1.2-0.4s0.4-0.7,0.4-1.3V100
			c-0.4,0.5-1,0.8-1.8,0.8c-0.7,0-1.3-0.3-1.8-0.9S57,98.5,57,97.4z M58.1,97.6c0,0.7,0.1,1.3,0.4,1.7s0.7,0.6,1.2,0.6
			c0.7,0,1.2-0.3,1.5-0.9V96c-0.3-0.6-0.8-0.9-1.5-0.9c-0.5,0-0.9,0.2-1.2,0.6S58.1,96.8,58.1,97.6z"/>
		<path class="st0" d="M66.6,100.8c-0.9,0-1.6-0.3-2.1-0.8s-0.8-1.3-0.8-2.3v-0.2c0-0.6,0.1-1.2,0.4-1.7s0.6-0.9,1-1.2
			s0.9-0.4,1.4-0.4c0.8,0,1.5,0.3,1.9,0.8s0.7,1.3,0.7,2.3v0.5h-4.3c0,0.6,0.2,1.1,0.5,1.5s0.8,0.6,1.3,0.6c0.4,0,0.7-0.1,1-0.2
			s0.5-0.4,0.7-0.6l0.7,0.5C68.5,100.4,67.7,100.8,66.6,100.8z M66.5,95.1c-0.4,0-0.8,0.2-1.1,0.5s-0.5,0.8-0.6,1.3H68v-0.1
			c0-0.6-0.2-1-0.4-1.3S67,95.1,66.5,95.1z"/>
	</g>
</g>
</svg>
