<svg fill="#FFFFFF" xmlns="http://www.w3.org/2000/svg" data-name="Layer 1" viewBox="0 0 50 50" x="0px" y="0px"><title>Emotions_tnp</title><path d="M49,25A24,24,0,1,0,36.79,45.89l2.47,2.47a1,1,0,0,0,1.41,0l6.59-6.59h0a5.67,5.67,0,0,0,0-8A23.77,23.77,0,0,0,49,25ZM37,39.3c0.66,2.11,1.35,4.42,1.71,5.73l-4.69-4.69h0a3.67,3.67,0,0,1,5.19-5.19A11,11,0,0,1,41,38.21,8.18,8.18,0,0,1,38.22,38,1,1,0,0,0,37,39.3Zm8.83,1h0l-5,5c-0.16-.71-0.55-2.13-1.46-5.09,1.18,0.1,2.55,0,3.22-.73a1.75,1.75,0,0,0,.29-1.83,12.56,12.56,0,0,0-1.58-3A3.66,3.66,0,0,1,45.88,40.34ZM45.62,32.6a5.69,5.69,0,0,0-5.65.55,5.68,5.68,0,0,0-7.31.6,5.61,5.61,0,0,0-1.56,3,13.43,13.43,0,0,0-14.67.94,1,1,0,1,0,1.15,1.64,11.42,11.42,0,0,1,13.62-.17,5.59,5.59,0,0,0,1.46,2.6h0l2.65,2.65A22.19,22.19,0,1,1,45.62,32.6ZM20,19a3,3,0,1,1-3-3A3,3,0,0,1,20,19Zm16,0a3,3,0,1,1-3-3A3,3,0,0,1,36,19Z"></path></svg>