<?xml version="1.0" encoding="utf-8"?>
<!-- Generator: Adobe Illustrator 22.0.1, SVG Export Plug-In . SVG Version: 6.00 Build 0)  -->
<svg version="1.1" id="Layer_1" xmlns="http://www.w3.org/2000/svg" xmlns:xlink="http://www.w3.org/1999/xlink" x="0px" y="0px"
	 viewBox="0 0 100 104.7" style="enable-background:new 0 0 100 104.7;" xml:space="preserve">
<style type="text/css">
	.st0{fill:#FFFFFF;}
	.st1{enable-background:new    ;}
</style>
<title>invest</title>
<g>
	<g>
		<path class="st0" d="M52.5,33.1c6.5,0,11.8-5.3,11.8-11.8c0-0.8-0.7-1.5-1.5-1.5h-4.1c-4.3,0-8.2,2.3-10.3,6.1
			c-2.1-3.7-6-6.1-10.3-6.1H34c-0.8,0-1.5,0.7-1.5,1.5c0,6.5,5.3,11.8,11.8,11.8l0,0h2.5v31.4H26.5V53.7h2.7
			c6.5,0,11.8-5.3,11.8-11.8l0,0l0,0c0-0.8-0.7-1.5-1.5-1.5h-4.1c-4.3,0-8.2,2.3-10.3,6.1c-2.1-3.7-6-6.1-10.3-6.1h-4.1
			c-0.8,0-1.5,0.7-1.5,1.5l0,0c0,6.5,5.3,11.8,11.8,11.8h2.5v10.7H10.3c-0.8,0-1.5,0.7-1.5,1.5s0.7,1.5,1.5,1.5h45.4
			c0.8,0,1.5-0.7,1.5-1.5s-0.7-1.5-1.5-1.5l0,0h-5.8v-15l3.5-3.5c0.4-0.4,0.3-1.1-0.1-1.4c-0.4-0.3-0.9-0.3-1.2,0L50,46.6V33.1H52.5
			z M35.4,43.4h2.5c-0.7,4.2-4.4,7.3-8.7,7.3h-2.5C27.4,46.5,31.1,43.4,35.4,43.4z M21,50.7c-4.3,0-7.9-3.1-8.7-7.3h2.5
			c4.3,0,7.9,3.1,8.7,7.3H21z M58.8,22.8h2.5c-0.7,4.2-4.4,7.3-8.7,7.3h-2.5C50.8,25.9,54.5,22.8,58.8,22.8z M44.3,30.1
			c-4.3,0-7.9-3.1-8.7-7.3h2.5c4.3,0,7.9,3.1,8.7,7.3C46.8,30.1,44.3,30.1,44.3,30.1z"/>
	</g>
	<g>
		<path class="st0" d="M89.7,0h-7.6c-4.3,0-8.2,2.3-10.3,6.1C69.7,2.3,65.8,0,61.5,0h-7.6c-0.8,0-1.5,0.7-1.5,1.5V4
			c0,6.5,5.3,11.8,11.8,11.8h6v31.9l-2.5-2.5c-0.4-0.4-1-0.4-1.4,0s-0.4,1,0,1.4l3.9,3.9V64c0,0.2,0,0.3,0.1,0.5H64
			c-0.8,0-1.5,0.7-1.5,1.5s0.7,1.5,1.5,1.5h16c0.8,0,1.5-0.7,1.5-1.5s-0.7-1.5-1.5-1.5h-6.9c0.1-0.2,0.1-0.3,0.1-0.5V15.8h6.2
			c6.5,0,11.8-5.3,11.8-11.8V1.5C91.2,0.7,90.5,0,89.7,0z M82.1,3h3.8L82,5.7l0.3-1.1c0.1-0.5-0.3-1.1-0.8-1.2
			c-0.5-0.1-1,0.2-1.1,0.7l-0.8,3.4L73.3,12v-0.2C73.3,6.9,77.2,3,82.1,3L82.1,3z M70.3,11.8V12l-3.8-2.7l0,0L64,7.5l-0.8-3.4
			c-0.2-0.5-0.7-0.8-1.3-0.7c-0.5,0.1-0.8,0.6-0.7,1.1l0.3,1.1L57.7,3h3.8C66.3,3,70.3,7,70.3,11.8z M55.4,4V3.8l8.1,5.8L61,10.2
			c-0.6,0.1-1,0.6-0.9,1.1s0.6,1,1.1,0.9h0.2l4.3-0.9l2.3,1.6h-3.8C59.4,12.8,55.4,8.9,55.4,4z M79.4,12.8h-3.8l2.2-1.6l4.3,0.9h0.2
			c0.6,0.1,1-0.3,1.1-0.9c0.1-0.6-0.3-1-0.9-1.1l0,0L80,9.6l8.2-5.8V4C88.1,8.8,84.2,12.8,79.4,12.8L79.4,12.8z"/>
	</g>
	<g>
		<path class="st0" d="M88.6,64.5h-4.1c-0.8,0-1.5,0.7-1.5,1.5s0.7,1.5,1.5,1.5h4.1c0.8,0,1.5-0.7,1.5-1.5S89.5,64.5,88.6,64.5
			L88.6,64.5z"/>
	</g>
	<g class="st1">
		<path class="st0" d="M15.3,86.3h-1.1v-8.5h1.1V86.3z"/>
		<path class="st0" d="M18.2,79.9l0,0.8c0.5-0.6,1.1-0.9,1.9-0.9c1.3,0,2,0.8,2,2.3v4.2h-1.1v-4.2c0-0.5-0.1-0.8-0.3-1
			s-0.5-0.3-1-0.3c-0.4,0-0.7,0.1-0.9,0.3s-0.5,0.4-0.6,0.7v4.5h-1.1v-6.3H18.2z"/>
		<path class="st0" d="M25.9,84.8l1.6-4.9h1.1l-2.3,6.3h-0.8l-2.3-6.3h1.1L25.9,84.8z"/>
		<path class="st0" d="M32.2,86.4c-0.9,0-1.6-0.3-2.1-0.8s-0.8-1.3-0.8-2.3v-0.2c0-0.6,0.1-1.2,0.4-1.7s0.6-0.9,1-1.2
			s0.9-0.4,1.4-0.4c0.8,0,1.5,0.3,1.9,0.8s0.7,1.3,0.7,2.3v0.5h-4.3c0,0.6,0.2,1.1,0.5,1.5s0.8,0.6,1.3,0.6c0.4,0,0.7-0.1,1-0.2
			s0.5-0.4,0.7-0.6l0.7,0.5C34,86,33.2,86.4,32.2,86.4z M32,80.7c-0.4,0-0.8,0.2-1.1,0.5s-0.5,0.8-0.6,1.3h3.2v-0.1
			c0-0.6-0.2-1-0.4-1.3S32.5,80.7,32,80.7z"/>
		<path class="st0" d="M39.6,84.6c0-0.3-0.1-0.5-0.3-0.7s-0.6-0.3-1.2-0.4s-1-0.3-1.3-0.4s-0.6-0.4-0.7-0.6s-0.2-0.5-0.2-0.8
			c0-0.5,0.2-1,0.7-1.3s1-0.5,1.7-0.5c0.7,0,1.3,0.2,1.7,0.6s0.7,0.8,0.7,1.4h-1.1c0-0.3-0.1-0.6-0.4-0.8s-0.6-0.3-1-0.3
			c-0.4,0-0.7,0.1-0.9,0.3s-0.3,0.4-0.3,0.7c0,0.3,0.1,0.5,0.3,0.6s0.6,0.3,1.1,0.4s1,0.3,1.3,0.4s0.6,0.4,0.7,0.6s0.2,0.5,0.2,0.9
			c0,0.6-0.2,1-0.7,1.4s-1,0.5-1.8,0.5c-0.5,0-1-0.1-1.3-0.3s-0.7-0.4-0.9-0.8s-0.3-0.7-0.3-1h1.1c0,0.4,0.2,0.7,0.4,0.9
			s0.6,0.3,1.1,0.3c0.4,0,0.7-0.1,1-0.2S39.6,84.9,39.6,84.6z"/>
		<path class="st0" d="M43.6,78.4v1.5h1.2v0.8h-1.2v3.9c0,0.3,0.1,0.4,0.2,0.6s0.3,0.2,0.5,0.2c0.1,0,0.3,0,0.5-0.1v0.9
			c-0.3,0.1-0.6,0.1-0.8,0.1c-0.5,0-0.8-0.1-1.1-0.4s-0.4-0.7-0.4-1.2v-3.9h-1.2v-0.8h1.2v-1.5H43.6z"/>
		<path class="st0" d="M49,78.2c0-0.2,0.1-0.3,0.2-0.4s0.3-0.2,0.5-0.2s0.4,0.1,0.5,0.2s0.2,0.3,0.2,0.4s-0.1,0.3-0.2,0.4
			s-0.3,0.2-0.5,0.2s-0.4-0.1-0.5-0.2S49,78.4,49,78.2z M50.2,86.3h-1.1v-6.3h1.1V86.3z"/>
		<path class="st0" d="M52.9,79.9l0,0.8c0.5-0.6,1.1-0.9,1.9-0.9c1.3,0,2,0.8,2,2.3v4.2h-1.1v-4.2c0-0.5-0.1-0.8-0.3-1
			s-0.5-0.3-1-0.3c-0.4,0-0.7,0.1-0.9,0.3s-0.5,0.4-0.6,0.7v4.5h-1.1v-6.3H52.9z"/>
		<path class="st0" d="M63.6,84.7l1.5-4.8h1.2l-2.5,7.3c-0.4,1.1-1,1.6-1.9,1.6l-0.2,0l-0.4-0.1v-0.9l0.3,0c0.4,0,0.7-0.1,0.9-0.2
			s0.4-0.4,0.5-0.8l0.2-0.6l-2.3-6.3H62L63.6,84.7z"/>
		<path class="st0" d="M66.8,83c0-0.6,0.1-1.2,0.4-1.7s0.6-0.9,1-1.1s0.9-0.4,1.5-0.4c0.9,0,1.6,0.3,2.1,0.9s0.8,1.4,0.8,2.4v0.1
			c0,0.6-0.1,1.2-0.4,1.7s-0.6,0.9-1,1.1s-0.9,0.4-1.5,0.4c-0.9,0-1.6-0.3-2.1-0.9S66.8,84.1,66.8,83L66.8,83z M67.9,83.2
			c0,0.7,0.2,1.3,0.5,1.7s0.8,0.6,1.3,0.6c0.6,0,1-0.2,1.3-0.6s0.5-1,0.5-1.8c0-0.7-0.2-1.3-0.5-1.7s-0.8-0.6-1.3-0.6
			c-0.5,0-1,0.2-1.3,0.6S67.9,82.4,67.9,83.2z"/>
		<path class="st0" d="M77.8,85.6c-0.4,0.5-1,0.7-1.9,0.7c-0.7,0-1.2-0.2-1.5-0.6s-0.5-1-0.5-1.7v-4.1H75V84c0,1,0.4,1.4,1.2,1.4
			c0.8,0,1.4-0.3,1.7-0.9v-4.6h1.1v6.3h-1L77.8,85.6z"/>
		<path class="st0" d="M83.6,80.9c-0.2,0-0.3,0-0.5,0c-0.7,0-1.2,0.3-1.4,0.9v4.5h-1.1v-6.3h1.1l0,0.7c0.4-0.6,0.9-0.8,1.5-0.8
			c0.2,0,0.4,0,0.5,0.1V80.9z"/>
	</g>
	<g class="st1">
		<path class="st0" d="M23.4,99.9c0.4,0,0.7-0.1,1-0.4s0.4-0.5,0.5-0.9h1c0,0.4-0.1,0.7-0.4,1s-0.5,0.6-0.9,0.8s-0.8,0.3-1.2,0.3
			c-0.9,0-1.5-0.3-2.1-0.9s-0.8-1.4-0.8-2.4v-0.2c0-0.6,0.1-1.2,0.3-1.6s0.6-0.9,1-1.1s0.9-0.4,1.5-0.4c0.7,0,1.3,0.2,1.8,0.6
			s0.7,1,0.8,1.7h-1c0-0.4-0.2-0.7-0.5-1s-0.6-0.4-1-0.4c-0.6,0-1,0.2-1.3,0.6s-0.5,1-0.5,1.7v0.2c0,0.7,0.2,1.3,0.5,1.7
			S22.8,99.9,23.4,99.9z"/>
		<path class="st0" d="M26.8,97.4c0-0.6,0.1-1.2,0.4-1.7s0.6-0.9,1-1.1s0.9-0.4,1.5-0.4c0.9,0,1.6,0.3,2.1,0.9s0.8,1.4,0.8,2.4v0.1
			c0,0.6-0.1,1.2-0.4,1.7s-0.6,0.9-1,1.1s-0.9,0.4-1.5,0.4c-0.9,0-1.6-0.3-2.1-0.9S26.8,98.5,26.8,97.4L26.8,97.4z M27.9,97.6
			c0,0.7,0.2,1.3,0.5,1.7s0.8,0.6,1.3,0.6c0.6,0,1-0.2,1.3-0.6s0.5-1,0.5-1.8c0-0.7-0.2-1.3-0.5-1.7s-0.8-0.6-1.3-0.6
			c-0.5,0-1,0.2-1.3,0.6S27.9,96.8,27.9,97.6z"/>
		<path class="st0" d="M35,94.3l0,0.7c0.5-0.5,1.1-0.8,1.9-0.8c0.9,0,1.5,0.3,1.8,1c0.2-0.3,0.5-0.6,0.8-0.7s0.7-0.3,1.2-0.3
			c1.4,0,2.1,0.7,2.1,2.2v4.2h-1.1v-4.2c0-0.5-0.1-0.8-0.3-1s-0.6-0.3-1-0.3c-0.4,0-0.7,0.1-1,0.4s-0.4,0.6-0.5,1v4.2h-1.1v-4.2
			c0-0.9-0.5-1.4-1.4-1.4c-0.7,0-1.2,0.3-1.5,0.9v4.6h-1.1v-6.3H35z"/>
		<path class="st0" d="M45.5,94.3l0,0.7c0.5-0.5,1.1-0.8,1.9-0.8c0.9,0,1.5,0.3,1.8,1c0.2-0.3,0.5-0.6,0.8-0.7s0.7-0.3,1.2-0.3
			c1.4,0,2.1,0.7,2.1,2.2v4.2h-1.1v-4.2c0-0.5-0.1-0.8-0.3-1s-0.6-0.3-1-0.3c-0.4,0-0.7,0.1-1,0.4s-0.4,0.6-0.5,1v4.2h-1.1v-4.2
			c0-0.9-0.5-1.4-1.4-1.4c-0.7,0-1.2,0.3-1.5,0.9v4.6h-1.1v-6.3H45.5z"/>
		<path class="st0" d="M58.9,100c-0.4,0.5-1,0.7-1.9,0.7c-0.7,0-1.2-0.2-1.5-0.6s-0.5-1-0.5-1.7v-4.1H56v4.1c0,1,0.4,1.4,1.2,1.4
			c0.8,0,1.4-0.3,1.7-0.9v-4.6h1.1v6.3h-1L58.9,100z"/>
		<path class="st0" d="M62.6,94.3l0,0.8c0.5-0.6,1.1-0.9,1.9-0.9c1.3,0,2,0.8,2,2.3v4.2h-1.1v-4.2c0-0.5-0.1-0.8-0.3-1
			s-0.5-0.3-1-0.3c-0.4,0-0.7,0.1-0.9,0.3s-0.5,0.4-0.6,0.7v4.5h-1.1v-6.3H62.6z"/>
		<path class="st0" d="M68.2,92.6c0-0.2,0.1-0.3,0.2-0.4s0.3-0.2,0.5-0.2s0.4,0.1,0.5,0.2s0.2,0.3,0.2,0.4s-0.1,0.3-0.2,0.4
			s-0.3,0.2-0.5,0.2s-0.4-0.1-0.5-0.2S68.2,92.8,68.2,92.6z M69.4,100.7h-1.1v-6.3h1.1V100.7z"/>
		<path class="st0" d="M72.6,92.8v1.5h1.2v0.8h-1.2v3.9c0,0.3,0.1,0.4,0.2,0.6s0.3,0.2,0.5,0.2c0.1,0,0.3,0,0.5-0.1v0.9
			c-0.3,0.1-0.6,0.1-0.8,0.1c-0.5,0-0.8-0.1-1.1-0.4s-0.4-0.7-0.4-1.2v-3.9h-1.2v-0.8h1.2v-1.5H72.6z"/>
		<path class="st0" d="M77.1,99.1l1.5-4.8h1.2l-2.5,7.3c-0.4,1.1-1,1.6-1.9,1.6l-0.2,0l-0.4-0.1v-0.9l0.3,0c0.4,0,0.7-0.1,0.9-0.2
			s0.4-0.4,0.5-0.8l0.2-0.6l-2.3-6.3h1.2L77.1,99.1z"/>
	</g>
</g>
</svg>
